{"title":"BNT-World.Parvata.zemya.na.Balkanite.TVRip.H264-720x576-FS.AAC-2","uid":6440344,"size":352731169,"categoryP":"video","categoryS":"other","magnet":"?xt=urn:btih:a185329850ea9fa42e0fa4d4bec1b9d9b10b8dec&amp;dn=BNT-World.Parvata.zemya.na.Balkanite.TVRip.H264-720x576-FS.AAC-2&amp;tr=udp%3A%2F%2Ftracker.openbittorrent.com%3A80&amp;tr=udp%3A%2F%2Fopen.demonii.com%3A1337&amp;tr=udp%3A%2F%2Ftracker.coppersurfer.tk%3A6969&amp;tr=udp%3A%2F%2Fexodus.desync.com%3A6969","seeders":0,"leechers":1,"uploader":"MixerX","files":-1,"time":1306959085,"description":"Wikipedia, Rhodope Mountains, http://en.wikipedia.org/w/index.php?title=Rhodope_Mountains\n\n\n--- GENERAL ------------------------------------------------------------\nComplete name                    : BNT-World.Parvata.zemya.na.Balkanite.TVRip.H264-720x576-FS.AAC-2.MixerX.mp4\nFormat                           : MPEG-4\nFormat profile                   : Base Media\nCodec ID                         : isom\nFile size                        : 336 MiB\nDuration                         : 28mn 28s\nOverall bit rate                 : 1 649 Kbps\nWriting application              : Lavf52.64.2\n\n--- VIDEO --------------------------------------------------------------\nID                               : 1\nFormat                           : AVC\nFormat/Info                      : Advanced Video Codec\nFormat profile                   : &lt;a class=&quot;__cf_email__&quot; href=&quot;/cdn-cgi/l/email-protection&quot; data-cfemail=&quot;82caebe5eac2ceb6acb2&quot;&gt;[email&amp;#160;protected]&lt;/a&gt;&lt;script cf-hash='f9e31' type=&quot;text/javascript&quot;&gt;\n/* &lt;![CDATA[ */!function(){try{var t=&quot;currentScript&quot;in document?document.currentScript:function(){for(var t=document.getElementsByTagName(&quot;script&quot;),e=t.length;e--;)if(t[e].getAttribute(&quot;cf-hash&quot;))return t[e]}();if(t&amp;&amp;t.previousSibling){var e,r,n,i,c=t.previousSibling,a=c.getAttribute(&quot;data-cfemail&quot;);if(a){for(e=&quot;&quot;,r=parseInt(a.substr(0,2),16),n=2;a.length-n;n+=2)i=parseInt(a.substr(n,2),16)^r,e+=String.fromCharCode(i);e=document.createTextNode(e),c.parentNode.replaceChild(e,c)}}}catch(u){}}();/* ]]&gt; */&lt;/script&gt;\nFormat settings, CABAC           : Yes\nFormat settings, ReFrames        : 16 frames\nCodec ID                         : avc1\nCodec ID/Info                    : Advanced Video Coding\nDuration                         : 28mn 28s\nBit rate mode                    : Variable\nBit rate                         : 1 536 Kbps\nWidth                            : 720 pixels\nHeight                           : 576 pixels\nDisplay aspect ratio             : 4:3\nOriginal display aspect ratio    : 4:3\nFrame rate mode                  : Constant\nFrame rate                       : 25.000 fps\nStandard                         : PAL\nColor space                      : YUV\nChroma subsampling               : 4:2:0\nBit depth                        : 8 bits\nScan type                        : Progressive\nBits/(Pixel*Frame)               : 0.148\nStream size                      : 313 MiB (93%)\nWriting library                  : x264 core 114\nEncoding settings                : cabac=1 / ref=16 / deblock=1:0:0 / analyse=0x3:0x133 / me=tesa / subme=10 / psy=1 / psy_rd=1.00:0.00 / mixed_ref=1 / me_range=24 / chroma_me=1 / trellis=2 / 8x8dct=1 / cqm=0 / deadzone=21,11 / fast_pskip=0 / chroma_qp_offset=-2 / threads=3 / sliced_threads=0 / nr=0 / decimate=1 / interlaced=0 / constrained_intra=0 / bframes=16 / b_pyramid=2 / b_adapt=2 / b_bias=0 / direct=3 / weightb=1 / open_gop=0 / weightp=2 / keyint=250 / keyint_min=25 / scenecut=40 / intra_refresh=0 / rc_lookahead=60 / rc=2pass / mbtree=1 / bitrate=1536 / ratetol=2.6 / qcomp=0.60 / qpmin=10 / qpmax=51 / qpstep=4 / cplxblur=20.0 / qblur=0.5 / ip_ratio=1.41 / aq=1:1.00\nLanguage                         : Bulgarian\n\n--- AUDIO --------------------------------------------------------------\nID                               : 2\nFormat                           : AAC\nFormat/Info                      : Advanced Audio Codec\nFormat profile                   : LC\nCodec ID                         : 40\nDuration                         : 28mn 28s\nBit rate mode                    : Variable\nBit rate                         : 107 Kbps\nChannel(s)                       : 2 channels\nChannel positions                : Front: L R\nSampling rate                    : 48.0 KHz\nCompression mode                 : Lossy\nStream size                      : 21.8 MiB (6%)\nLanguage                         : Bulgarian","torrent":{"xt":"urn:btih:a185329850ea9fa42e0fa4d4bec1b9d9b10b8dec","amp;dn":"BNT-World.Parvata.zemya.na.Balkanite.TVRip.H264-720x576-FS.AAC-2","amp;tr":["udp%3A%2F%2Ftracker.openbittorrent.com%3A80","udp%3A%2F%2Fopen.demonii.com%3A1337","udp%3A%2F%2Ftracker.coppersurfer.tk%3A6969","udp%3A%2F%2Fexodus.desync.com%3A6969"],"infoHash":"a185329850ea9fa42e0fa4d4bec1b9d9b10b8dec","infoHashBuffer":{"type":"Buffer","data":[161,133,50,152,80,234,159,164,46,15,164,212,190,193,185,217,177,11,141,236]},"announce":[],"urlList":[]}}